
<!-- Generator: visioncortex VTracer 0.6.4 -->
<svg version="1.1" xmlns="http://www.w3.org/2000/svg" viewBox="0 0 512 512" preserveAspectRatio="xMidYMid meet">
<path d="M0 0 C1.012 0.001 2.024 0.001 3.067 0.002 C19.599 0.042 35.524 0.958 51.75 4.375 C52.781 4.589 53.812 4.804 54.875 5.024 C101.107 14.95 143.722 37.601 177.75 70.375 C178.739 71.323 178.739 71.323 179.748 72.291 C189.236 81.435 197.976 90.732 205.75 101.375 C206.608 102.526 207.466 103.677 208.324 104.828 C219.568 120.081 229.494 136.851 236.75 154.375 C237.605 154.413 237.605 154.413 238.478 154.451 C241.048 154.567 243.618 154.689 246.188 154.812 C247.085 154.852 247.983 154.891 248.908 154.932 C249.762 154.974 250.616 155.015 251.496 155.059 C252.682 155.114 252.682 155.114 253.892 155.17 C255.75 155.375 255.75 155.375 256.75 156.375 C257.607 163.454 256.505 169.3 252.75 175.375 C250.688 177.438 250.688 177.438 248.75 178.375 C247.76 178.375 246.77 178.375 245.75 178.375 C245.911 178.951 246.072 179.528 246.237 180.121 C251.95 200.787 256.801 221.801 256.988 243.332 C256.998 244.265 257.008 245.197 257.018 246.158 C257.191 266.881 257.039 287.008 252.75 307.375 C252.429 308.922 252.429 308.922 252.101 310.5 C242.175 356.732 219.524 399.347 186.75 433.375 C186.118 434.034 185.486 434.694 184.834 435.373 C175.69 444.861 166.393 453.601 155.75 461.375 C154.599 462.233 153.448 463.091 152.297 463.949 C144.106 469.987 135.592 475.346 126.75 480.375 C126.118 480.739 125.486 481.104 124.835 481.479 C98.75 496.41 69.414 505.889 39.75 510.375 C38.628 510.552 37.505 510.728 36.349 510.91 C24.736 512.567 13.218 512.774 1.5 512.75 C-0.018 512.749 -0.018 512.749 -1.567 512.748 C-18.099 512.708 -34.024 511.792 -50.25 508.375 C-51.797 508.054 -51.797 508.054 -53.375 507.726 C-99.607 497.8 -142.222 475.149 -176.25 442.375 C-176.909 441.743 -177.569 441.111 -178.248 440.459 C-187.736 431.315 -196.476 422.018 -204.25 411.375 C-205.108 410.224 -205.966 409.073 -206.824 407.922 C-212.862 399.731 -218.221 391.217 -223.25 382.375 C-223.614 381.743 -223.979 381.111 -224.354 380.46 C-239.285 354.375 -248.764 325.039 -253.25 295.375 C-253.515 293.691 -253.515 293.691 -253.785 291.974 C-255.442 280.361 -255.649 268.843 -255.625 257.125 C-255.624 256.113 -255.624 255.101 -255.623 254.058 C-255.583 237.526 -254.667 221.601 -251.25 205.375 C-251.036 204.344 -250.821 203.312 -250.601 202.25 C-240.675 156.018 -218.024 113.403 -185.25 79.375 C-184.618 78.716 -183.986 78.056 -183.334 77.377 C-174.19 67.889 -164.893 59.149 -154.25 51.375 C-153.099 50.517 -151.948 49.659 -150.797 48.801 C-142.606 42.763 -134.092 37.404 -125.25 32.375 C-124.618 32.011 -123.986 31.646 -123.335 31.271 C-97.25 16.34 -67.914 6.861 -38.25 2.375 C-37.128 2.198 -36.005 2.022 -34.849 1.84 C-23.236 0.183 -11.718 -0.024 0 0 Z " fill="#DCDCDC" transform="translate(255.25,-0.375)"/>
<path d="M0 0 C5.707 4.839 7.969 10.542 8.613 17.914 C8.853 27.279 7.211 35.16 1.125 42.5 C-7.98 51.933 -18.343 56.79 -31.543 57.355 C-42.457 57.471 -52.346 56.665 -62.652 52.773 C-64.921 51.998 -64.921 51.998 -68.625 52.188 C-72.961 63.506 -75.238 74.02 -75.312 86.188 C-75.331 87.295 -75.35 88.403 -75.369 89.544 C-75.253 97.961 -73.45 106.052 -68.324 112.934 C-63.024 117.965 -55.162 119.319 -48.125 119.688 C-42.426 119.501 -36.948 118.037 -32.625 114.188 C-30.996 109.873 -30.283 105.471 -29.586 100.932 C-28.317 92.692 -26.712 86.552 -21.812 79.625 C-19.625 78.188 -19.625 78.188 -16.188 78.188 C-10.263 79.85 -7.821 82.578 -4.875 87.812 C0.623 98.287 -1.873 107.994 -4.625 119.188 C-4.911 120.362 -5.197 121.536 -5.492 122.746 C-6.189 125.564 -6.899 128.377 -7.625 131.188 C1.665 123.472 10.238 115.449 18.352 106.5 C19.122 105.659 19.122 105.659 19.907 104.801 C20.865 103.748 21.811 102.683 22.741 101.605 C24.023 100.187 24.023 100.187 26.375 98.188 C28.688 98.375 28.688 98.375 30.375 99.188 C31.365 113.41 26.377 122.435 17.375 133.188 C16.843 133.835 16.31 134.482 15.762 135.148 C8.927 142.672 -0.942 149.196 -10.625 152.125 C-14.605 153.752 -16.002 155.522 -17.645 159.359 C-19.204 163.511 -20.528 167.734 -21.866 171.96 C-25.303 182.046 -32.138 188.949 -41.375 193.938 C-55.563 200.451 -72.047 201.748 -86.852 196.453 C-94.25 193.077 -100.46 187.827 -103.938 180.375 C-104.986 175.511 -105.972 170.845 -103.633 166.23 C-97.676 158.506 -87.711 155.549 -78.625 153.188 C-77.24 152.818 -77.24 152.818 -75.827 152.441 C-47.811 145.188 -47.811 145.188 -37.625 145.188 C-36.635 141.228 -36.635 141.228 -35.625 137.188 C-36.168 137.465 -36.71 137.742 -37.27 138.027 C-37.985 138.39 -38.7 138.752 -39.438 139.125 C-40.145 139.485 -40.853 139.844 -41.582 140.215 C-52.337 145.335 -68.071 142.792 -79.125 139.457 C-84.118 137.646 -88.35 135.318 -92.625 132.188 C-93.206 131.787 -93.788 131.386 -94.387 130.973 C-102.141 125.171 -106.224 115.559 -107.625 106.188 C-108.669 93.547 -108 81.415 -104.625 69.188 C-104.42 68.214 -104.215 67.241 -104.004 66.238 C-102.367 58.622 -99.468 51.806 -96.246 44.754 C-95.711 43.577 -95.176 42.4 -94.625 41.188 C-94.158 40.306 -93.692 39.424 -93.211 38.516 C-92.333 36.108 -92.333 36.108 -93.855 33.793 C-94.824 32.596 -94.824 32.596 -95.812 31.375 C-99.826 26.039 -103.25 21.167 -102.312 14.188 C-102.086 13.197 -101.859 12.208 -101.625 11.188 C-99.449 10.418 -99.449 10.418 -96.625 10.188 C-94.02 11.988 -94.02 11.988 -91.438 14.5 C-90.578 15.321 -89.718 16.142 -88.832 16.988 C-87.429 18.387 -86.026 19.786 -84.625 21.188 C-81.455 21.132 -80.409 19.982 -78.102 17.781 C-77.148 16.753 -76.198 15.721 -75.25 14.688 C-57.046 -4.349 -23.928 -16.437 0 0 Z " fill="#32409F" transform="translate(141.625,159.8125)"/>
<path d="M0 0 C1.219 -0.031 1.219 -0.031 2.463 -0.062 C10.8 -0.116 18.271 1.898 24.812 7.25 C31.319 14.955 31.413 22.463 30.987 32.196 C30.206 41.376 24.351 49.156 17.699 55.156 C6.515 63.728 -8.094 67.776 -21.957 68.793 C-23.125 68.88 -24.292 68.966 -25.495 69.055 C-26.384 69.12 -27.272 69.184 -28.188 69.25 C-28.475 75.53 -28.759 81.811 -29.042 88.092 C-29.138 90.226 -29.235 92.361 -29.333 94.496 C-29.473 97.571 -29.612 100.647 -29.75 103.723 C-29.816 105.145 -29.816 105.145 -29.883 106.596 C-30.1 111.487 -30.235 116.354 -30.188 121.25 C-27.795 122.403 -25.399 123.547 -23 124.688 C-21.99 125.176 -21.99 125.176 -20.959 125.674 C-13.547 129.181 -6.393 130.29 1.812 129.25 C10.2 126.034 16.073 117.861 21.812 111.25 C22.556 110.407 23.3 109.564 24.066 108.695 C25.658 106.888 27.24 105.074 28.812 103.25 C30.132 103.91 31.452 104.57 32.812 105.25 C34.071 117.277 30.712 126.121 23.32 135.367 C13.965 145.373 2.749 151.012 -10.938 151.562 C-21.107 151.295 -29.845 148.365 -38.629 143.359 C-41.049 142.075 -41.049 142.075 -43.309 142.406 C-45.428 143.358 -46.918 144.495 -48.688 146 C-58.863 153.744 -68.784 155.457 -81.188 154.25 C-87.603 152.997 -91.576 149.854 -95.379 144.605 C-99.039 138.548 -99.127 132.135 -98.188 125.25 C-96.553 119.696 -93.023 116.727 -88.188 113.75 C-79.415 109.673 -69.637 110.732 -60.188 111.25 C-60.211 110.52 -60.234 109.791 -60.258 109.039 C-60.526 93.55 -58.069 78.426 -55.188 63.25 C-55.916 62.991 -56.644 62.732 -57.395 62.465 C-60.28 61.21 -62.411 59.758 -64.875 57.812 C-65.642 57.216 -66.409 56.619 -67.199 56.004 C-69.188 54.25 -69.188 54.25 -71.188 51.25 C-70.812 47.562 -70.812 47.562 -70.188 44.25 C-62.866 43.399 -56.838 46.45 -50.188 49.25 C-50.075 48.725 -49.963 48.201 -49.848 47.66 C-45.412 30.237 -34.551 13.839 -19.188 4.25 C-12.61 0.582 -7.385 0.046 0 0 Z " fill="#32409F" transform="translate(351.1875,153.75)"/>
<path d="M0 0 C1.575 -0.001 3.15 -0.002 4.725 -0.003 C8.004 -0.004 11.283 -0.002 14.561 0.002 C18.771 0.008 22.981 0.005 27.192 -0.001 C30.433 -0.005 33.675 -0.004 36.917 -0.001 C38.471 -0 40.025 -0.001 41.578 -0.003 C43.737 -0.006 45.896 -0.002 48.055 0.003 C49.284 0.004 50.513 0.005 51.779 0.006 C54.527 0.133 54.527 0.133 55.527 1.133 C56.367 8.073 55.427 14.247 51.527 20.133 C48.944 22.936 47.544 23.131 43.676 23.461 C42.084 23.451 40.493 23.424 38.902 23.383 C37.621 23.366 37.621 23.366 36.313 23.35 C24.714 23.16 13.117 22.647 1.527 22.133 C1.563 23.18 1.6 24.226 1.637 25.305 C1.631 31.399 0.663 37.365 -0.223 43.383 C-0.493 45.256 -0.493 45.256 -0.77 47.166 C-1.809 54.183 -2.998 61.133 -4.473 68.07 C-7.871 84.299 -10.099 100.726 -11.215 117.266 C-11.275 118.126 -11.334 118.986 -11.396 119.873 C-11.688 124.132 -11.951 128.39 -12.17 132.654 C-12.269 134.22 -12.368 135.786 -12.469 137.352 C-12.496 138.065 -12.523 138.778 -12.551 139.513 C-12.819 143.326 -13.405 145.051 -15.858 148.039 C-20.904 152.08 -25.83 152.463 -32.16 152.57 C-33.463 152.61 -34.767 152.65 -36.109 152.691 C-39.473 152.133 -39.473 152.133 -41.395 150.324 C-53.389 114.818 -31.727 54.697 -17.473 22.133 C-29.525 23.786 -40.966 26.84 -52.585 30.439 C-59.137 32.413 -64.626 33.579 -71.473 33.133 C-70.699 24.934 -65.188 20.213 -59.074 15.145 C-40.793 1.803 -21.884 -0.033 0 0 Z " fill="#31409F" transform="translate(456.47265625,154.8671875)"/>
<path d="M0 0 C0.795 0.002 1.591 0.003 2.41 0.005 C14.083 0.031 25.755 0.162 37.425 0.444 C38.971 0.481 40.518 0.515 42.065 0.546 C44.214 0.591 46.363 0.649 48.512 0.711 C49.732 0.742 50.952 0.774 52.21 0.806 C55.062 1.125 55.062 1.125 57.062 3.125 C56.698 7.229 55.062 10.589 53.25 14.25 C52.749 15.284 52.247 16.318 51.73 17.383 C49.979 20.262 49.069 21.632 46.062 23.125 C43.249 23.377 40.681 23.452 37.875 23.375 C36.66 23.359 36.66 23.359 35.421 23.342 C24.296 23.15 13.177 22.623 2.062 22.125 C1.962 22.948 1.962 22.948 1.86 23.787 C-0.343 41.638 -3.173 59.362 -6.106 77.105 C-9.295 96.442 -12.156 115.404 -12.416 135.033 C-12.665 144.333 -12.665 144.333 -15.938 148.125 C-21.642 151.523 -26.417 152.32 -33 152.5 C-34.228 152.549 -35.457 152.598 -36.723 152.648 C-39.938 152.125 -39.938 152.125 -41.614 149.934 C-43.044 146.898 -43.324 144.987 -43.336 141.652 C-43.342 140.599 -43.349 139.546 -43.355 138.461 C-43.341 137.339 -43.327 136.218 -43.312 135.062 C-43.296 133.305 -43.296 133.305 -43.28 131.512 C-43.092 121.13 -41.912 111.3 -39.938 101.125 C-39.599 99.3 -39.599 99.3 -39.253 97.438 C-36.332 81.719 -32.964 66.198 -28.375 50.875 C-28.024 49.694 -27.672 48.512 -27.31 47.295 C-24.731 38.966 -21.501 31.073 -17.938 23.125 C-31.662 23.217 -45.935 27.038 -58.614 32.219 C-61.312 33.271 -63.367 33.327 -66.25 33.25 C-67.133 33.232 -68.016 33.214 -68.926 33.195 C-69.59 33.172 -70.254 33.149 -70.938 33.125 C-71.938 30.125 -71.938 30.125 -71.039 28.145 C-61.938 14.542 -47.945 5.364 -31.938 1.938 C-21.366 -0.082 -10.716 -0.037 0 0 Z " fill="#31409F" transform="translate(233.9375,154.875)"/>
<path d="M0 0 C2.93 2.072 4.73 3.711 6.562 6.812 C7.467 12.138 6.099 15.367 3.438 19.82 C-0.96 24.492 -5.354 27.052 -11.828 27.441 C-13.781 27.451 -15.735 27.428 -17.688 27.375 C-18.701 27.363 -19.714 27.351 -20.758 27.338 C-28.247 27.131 -34.626 26.094 -41.438 22.812 C-33.789 7.515 -17.955 -6.203 0 0 Z " fill="#D8D9DB" transform="translate(121.4375,174.1875)"/>
<path d="M0 0 C3.125 2 3.125 2 5 5 C5.676 9.735 5.567 11.867 3.438 16.125 C-3.93 24.815 -12.877 29.605 -24 32 C-25.666 32.046 -27.334 32.059 -29 32 C-26.702 19.468 -22.419 9.417 -12.688 1 C-8.444 -0.579 -4.457 -0.76 0 0 Z " fill="#D9D9DB" transform="translate(355,173)"/>
<path d="M0 0 C-2.144 7.783 -7.702 14.101 -14.375 18.625 C-21.088 21.171 -27.445 20.919 -34.125 18.312 C-37.003 16.858 -37.806 16.399 -39.25 13.438 C-38.942 10.439 -38.285 9.881 -36 8 C-34.122 7.248 -34.122 7.248 -32.008 6.719 C-31.226 6.518 -30.444 6.317 -29.639 6.11 C-28.395 5.808 -28.395 5.808 -27.125 5.5 C-26.277 5.286 -25.428 5.073 -24.554 4.853 C-22.039 4.224 -19.52 3.61 -17 3 C-15.961 2.744 -15.961 2.744 -14.902 2.482 C-4.843 0 -4.843 0 0 0 Z " fill="#D6D7DA" transform="translate(96,324)"/>
<path d="M0 0 C3.062 1 3.062 1 5 2 C4.674 4.938 4.118 6.819 2.5 9.312 C-0.735 11.496 -3.055 11.44 -6.879 11.434 C-9.486 10.901 -10.398 10.095 -12 8 C-12.375 5.5 -12.375 5.5 -12 3 C-8.786 -1.208 -4.879 -0.521 0 0 Z " fill="#D5D6DA" transform="translate(284,281)"/>
</svg>