<svg xmlns="http://www.w3.org/2000/svg" viewBox="0 0 251.16 156.65"><defs><style>.cls-1{fill:#388073;}.cls-2{fill:#154270;}</style></defs><g id="Layer_2" data-name="Layer 2"><g id="Layer_1-2" data-name="Layer 1"><path class="cls-1" d="M168.75,28,136.93,46.39a5.17,5.17,0,0,1-7.75-4.47V5.17A5.17,5.17,0,0,1,136.93.7l31.82,18.37A5.16,5.16,0,0,1,168.75,28Z"/><path class="cls-1" d="M82.41,28l31.82,18.38A5.17,5.17,0,0,0,122,41.92V5.17A5.17,5.17,0,0,0,114.23.7L82.41,19.07A5.16,5.16,0,0,0,82.41,28Z"/><path class="cls-2" d="M191.33,148.71q-25.82,0-42.67-16.09T131.8,91.52q0-25,16.86-41.1t42.67-16.1a64.67,64.67,0,0,1,30.77,7.24,53,53,0,0,1,21.37,20.35,57.49,57.49,0,0,1,7.69,29.61,57.49,57.49,0,0,1-7.69,29.61,53,53,0,0,1-21.37,20.35A64.78,64.78,0,0,1,191.33,148.71ZM171,70.16q-7.84,8.5-7.84,21.36T171,112.88q7.84,8.5,20.3,8.5,12.75,0,20.6-8.5t7.85-21.36q0-13-7.85-21.41t-20.6-8.46Q178.88,61.65,171,70.16Z"/><path class="cls-2" d="M59.53,147q-25.81,0-42.67-16.1T0,89.82q0-25,16.86-41.1T59.53,32.63A64.78,64.78,0,0,1,90.3,39.86a53.07,53.07,0,0,1,21.36,20.35,57.4,57.4,0,0,1,7.7,29.61,57.37,57.37,0,0,1-7.7,29.61A52.94,52.94,0,0,1,90.3,139.78,64.67,64.67,0,0,1,59.53,147ZM39.23,68.46Q31.39,77,31.38,89.82t7.85,21.36q7.85,8.5,20.3,8.51,12.75,0,20.6-8.51T88,89.82q0-13-7.84-21.41T59.53,60Q47.08,60,39.23,68.46Z"/><path d="M119.36,156.65c0-.08,0-.16,0,0Z"/><path d="M119.36,147.39l-.1,1h0C119.3,148.05,119.33,147.72,119.36,147.39Z"/></g></g></svg>